<svg width="1920" height="960" viewBox="0 0 1920 960" fill="none" xmlns="http://www.w3.org/2000/svg">
<g clip-path="url(#clip0_7_15)">
<rect width="1920" height="960" fill="#EDF7F6"/>
<path d="M82 868.764C39.714 890.074 -5.5 965 -5.5 965C-5.5 965 79.4865 911.227 134 915.462C166.294 917.971 187.667 951.441 213 937.93C238.333 924.42 316 937.93 316 911.057C316 884.077 391 915.462 400 868.764C409 822.066 438.138 903.005 470 911.057C497.779 918.077 513.469 927.536 535.5 911.057C550.981 899.477 552.802 883.69 564 868.764C587.654 837.237 614.2 824.377 656 815.898C702.298 806.507 754 833.52 776 833.52C798 833.52 850.118 856.784 882 833.52C902.177 818.798 872.5 780.654 899.5 768.319C926.5 755.983 993.714 835.526 1039.5 833.52C1106.95 830.566 1114.59 812.267 1176 787.5C1215.18 771.697 1352.87 887.262 1390.5 868.764C1425.92 851.356 1427.99 766.508 1468.5 764.794C1550.56 761.324 1581.88 801.948 1662.5 815.898C1731.48 827.834 1790.69 826.211 1860 815.898C1928.44 805.716 1920 778 1920 778V0H1169C1169 0 1132.5 4.19519 1120.5 29C1108.5 53.8048 1140.5 56.5993 1095.5 93.5C1050.5 130.401 1020.92 51.6194 981 67C941.079 82.3806 993.332 147.707 970 184.5C892 307.5 962.5 173 876.5 213C790.5 253 778.504 280.285 797 316.5C808.556 339.127 768.422 340.192 769 365C769.961 406.242 821.004 422.782 779 441C740.433 457.727 767.453 485.266 725 491.213C659.308 500.416 649.432 457.526 595 491.213C553.767 516.732 505.831 517.638 512 561.701C516.576 594.385 515.908 612.213 512 644.965C506.427 691.671 452.002 723.995 400 713.691C370.125 707.771 368.182 675.947 338 671.398C283.464 663.177 265.222 719.774 244 764.794C228.83 796.976 252.42 825.494 228 852.904C192.528 892.72 131.868 843.634 82 868.764Z" fill="#151515"/>
<circle cx="1753" cy="119" r="42" fill="#EDF7F6"/>
<circle cx="1784.34" cy="118.677" r="31.3385" fill="#151515"/>
</g>
<defs>
<clipPath id="clip0_7_15">
<rect width="1920" height="960" fill="white"/>
</clipPath>
</defs>
</svg>
