<svg width="1920" height="960" viewBox="0 0 1920 960" fill="none" xmlns="http://www.w3.org/2000/svg">
<path d="M100.352 876.997C58.1242 898.285 0 960 0 960C0 960 59.395 915.723 113.833 919.954C146.082 922.46 202.877 954.43 228.175 940.933C253.473 927.436 289.09 937.275 289.09 910.428C289.09 883.475 367.482 914.829 376.469 868.178C385.457 821.526 410.061 902.384 441.879 910.428C469.619 917.442 499.768 926.891 521.768 910.428C537.228 898.86 523.466 883.089 534.649 868.178C558.27 836.682 597.863 853 639.605 844.529C685.84 835.148 700.022 806.068 721.991 806.068C743.961 806.068 826.963 856.209 858.802 832.969C878.951 818.262 889.26 799.318 916.222 786.995C943.185 774.672 960.375 834.973 1006.1 832.969C1073.46 830.018 1078.59 792.575 1139.91 767.833C1179.04 752.046 1319.53 886.657 1357.11 868.178C1392.48 850.787 1391.56 759.328 1432.01 757.617C1513.96 754.149 1541.74 819.033 1622.24 832.969C1691.13 844.893 1696.83 854.831 1766.05 844.529C1834.39 834.357 1920 768 1920 768V0H1183C1183 0 1103.79 0 1092.98 22.3526C1082.17 44.7052 1151.4 61.9123 1106.46 98.7761C1061.52 135.64 1036.98 83.4108 997.11 98.7761C957.244 114.141 1009.43 148.933 986.125 185.689C908.233 308.566 932.2 163.711 846.319 203.671C760.438 243.631 800.886 278.382 819.356 314.56C830.897 337.165 730.401 340.726 730.979 365.509C731.938 406.71 837.733 431.725 795.787 449.924C757.273 466.634 741.916 467.46 699.522 473.401C633.921 482.595 660.508 466.72 606.152 500.374C564.976 525.867 481.654 509.302 487.815 553.321C492.385 585.973 538.551 614.008 534.649 646.727C529.083 693.386 464.349 694.984 412.42 684.689C382.587 678.776 357.178 699.224 327.038 694.679C272.578 686.467 296.802 722.858 275.609 767.833C260.46 799.982 222.103 817.146 197.717 844.529C162.294 884.305 150.151 851.891 100.352 876.997Z" fill="#151515"/>
</svg>
