<svg width="1920" height="960" viewBox="0 0 1920 960" fill="none" xmlns="http://www.w3.org/2000/svg">
<path d="M81.9741 863.182C39.7004 884.373 0 960 0 960C0 960 79.4613 905.408 133.959 909.619C166.243 912.114 187.61 945.397 212.936 931.962C238.262 918.527 315.906 931.962 315.906 905.238C315.906 878.409 390.884 909.619 399.881 863.182C408.879 816.745 438.009 897.231 469.861 905.238C497.632 912.219 513.318 921.625 535.342 905.238C550.818 893.723 552.638 878.025 563.833 863.182C587.48 831.83 614.018 819.043 655.807 810.611C702.091 801.273 753.778 828.135 775.771 828.135C797.765 828.135 849.867 851.268 881.74 828.135C901.911 813.495 872.243 775.564 899.235 763.298C926.227 751.031 993.422 830.129 1039.19 828.135C1106.63 825.197 1114.26 807.001 1175.65 782.372C1214.83 766.657 1352.47 881.576 1390.09 863.182C1425.5 845.871 1427.57 761.497 1468.07 759.793C1550.11 756.341 1581.42 796.739 1662.01 810.611C1730.97 822.481 1790.36 822.15 1859.46 810.611C1920 800.5 1920 773 1920 773V0H1168C1168 0 1132.17 3.44318 1120.17 28.1094C1108.17 52.7756 1140.17 55.5545 1095.18 92.249C1050.19 128.944 1020.62 50.6024 980.712 65.8971C940.802 81.1917 993.04 146.153 969.715 182.741C891.737 305.053 962.217 171.305 876.242 211.081C790.267 250.858 778.275 277.991 796.765 314.003C808.318 336.504 768.196 337.563 768.773 362.232C769.734 403.244 820.763 419.692 778.771 437.808C740.215 454.441 767.227 481.826 724.786 487.74C659.113 496.892 649.24 454.241 594.824 487.74C553.603 513.116 505.681 514.017 511.848 557.834C516.423 590.336 515.755 608.064 511.848 640.633C506.277 687.078 451.868 719.222 399.881 708.975C370.016 703.088 368.073 671.442 337.899 666.918C283.38 658.744 265.143 715.024 243.927 759.793C228.761 791.795 252.345 820.154 227.931 847.411C192.469 887.004 131.827 838.192 81.9741 863.182Z" fill="#151515"/>
</svg>
