<svg width="19" height="19" fill="none" xmlns="http://www.w3.org/2000/svg"><path d="m8.908 5.62-1.84 1.84c-.678.678-1.36 1.356-2.035 2.042-.158.163-.279.38-.325.593-.244 1.12-.48 2.24-.717 3.36l-.132.62a.883.883 0 0 0 .225.81c.159.158.38.247.612.247.066 0 .132-.008.198-.02l.682-.143c1.085-.228 2.174-.46 3.259-.685.252-.055.465-.167.647-.35 3.045-3.049 6.091-6.094 9.137-9.136.224-.225.349-.492.38-.822a.54.54 0 0 0-.012-.158c-.02-.078-.035-.16-.054-.237-.043-.197-.09-.422-.183-.64C18.18 1.64 17.235.71 15.941.188c-.26-.105-.535-.14-.775-.17L15.1.008c-.348-.043-.666.073-.941.352-1.744 1.752-3.5 3.507-5.25 5.258ZM14.973.941h.019l.066.008c.201.023.387.047.534.109 1.054.426 1.83 1.185 2.298 2.255.055.124.09.283.124.45.012.061.027.123.039.185a.294.294 0 0 1-.097.167c-3.05 3.042-6.095 6.091-9.14 9.137a.306.306 0 0 1-.167.089l-3.263.686-.573.12.108-.508c.236-1.116.473-2.235.713-3.351a.338.338 0 0 1 .074-.128 333.58 333.58 0 0 1 2.026-2.035l1.84-1.84c1.756-1.755 3.511-3.51 5.263-5.27.074-.062.108-.074.136-.074Z" fill="#fff"/><path d="M1.507 4.224h6.766a.476.476 0 1 0 0-.953H1.507C.674 3.271 0 3.95 0 4.78v12.686a1.51 1.51 0 0 0 1.507 1.507H14.19a1.51 1.51 0 0 0 1.507-1.507v-6.49a.476.476 0 1 0-.953 0v6.49a.56.56 0 0 1-.558.558H1.507a.56.56 0 0 1-.558-.558V4.782a.56.56 0 0 1 .558-.558Z" fill="#fff"/></svg>