<svg width="177" height="21" fill="none" xmlns="http://www.w3.org/2000/svg"><path d="M16.762 1.09V20H13.31L5.083 8.099h-.139V20H.946V1.09h3.509l8.162 11.893h.166V1.091h3.98ZM19.992 20V5.818h3.933V20H19.99Zm1.975-16.01a2.137 2.137 0 0 1-1.505-.582c-.412-.394-.618-.864-.618-1.412 0-.542.206-1.007.618-1.394.419-.394.92-.591 1.505-.591.585 0 1.084.197 1.496.59.419.388.628.853.628 1.395 0 .548-.21 1.018-.628 1.412a2.105 2.105 0 0 1-1.496.582Zm9.042 7.811V20h-3.933V5.818h3.748V8.32h.166a3.957 3.957 0 0 1 1.58-1.957c.738-.486 1.633-.73 2.686-.73.985 0 1.843.216 2.576.647.732.43 1.302 1.046 1.708 1.846.406.794.61 1.742.61 2.844V20h-3.934v-8.328c.006-.868-.215-1.545-.665-2.031-.449-.493-1.068-.739-1.855-.739-.53 0-.998.114-1.404.342-.4.227-.714.56-.942.997-.221.43-.335.95-.341 1.56Zm16.284 8.467c-.904 0-1.71-.157-2.419-.471a3.894 3.894 0 0 1-1.68-1.413c-.406-.628-.61-1.41-.61-2.345 0-.788.145-1.45.434-1.985.29-.536.684-.966 1.182-1.293a5.732 5.732 0 0 1 1.7-.738 12.95 12.95 0 0 1 2.012-.351c.825-.086 1.49-.166 1.994-.24.505-.08.871-.197 1.099-.351.228-.154.342-.382.342-.683v-.056c0-.584-.185-1.037-.554-1.357-.364-.32-.88-.48-1.551-.48-.708 0-1.272.157-1.69.47a2.167 2.167 0 0 0-.831 1.164l-3.638-.295a4.943 4.943 0 0 1 1.09-2.235c.541-.634 1.24-1.12 2.096-1.458.861-.345 1.858-.517 2.99-.517.789 0 1.543.092 2.263.277.726.184 1.37.47 1.93.858a4.173 4.173 0 0 1 1.339 1.496c.326.603.489 1.326.489 2.17V20h-3.73v-1.967h-.111a4.003 4.003 0 0 1-.914 1.173 4.23 4.23 0 0 1-1.376.785c-.535.184-1.154.277-1.856.277Zm1.127-2.715c.578 0 1.09-.114 1.532-.341a2.714 2.714 0 0 0 1.044-.942c.252-.394.378-.84.378-1.339v-1.505c-.123.08-.292.154-.508.222-.209.061-.446.12-.71.175-.265.05-.53.096-.794.139l-.72.101a4.863 4.863 0 0 0-1.21.323 1.933 1.933 0 0 0-.803.6c-.191.247-.287.554-.287.924 0 .535.194.945.582 1.228.394.277.892.415 1.496.415Zm32.687-9.842h-4.044a3.957 3.957 0 0 0-.453-1.394 3.548 3.548 0 0 0-.877-1.053 3.86 3.86 0 0 0-1.237-.665 4.732 4.732 0 0 0-1.505-.23c-.979 0-1.831.243-2.558.729-.726.48-1.29 1.182-1.69 2.105-.4.917-.6 2.031-.6 3.343 0 1.348.2 2.48.6 3.397.407.917.973 1.61 1.7 2.078.726.467 1.566.701 2.52.701.536 0 1.031-.07 1.487-.212.461-.142.87-.348 1.228-.619.357-.277.652-.612.886-1.006a3.92 3.92 0 0 0 .499-1.348l4.044.018a7.315 7.315 0 0 1-.785 2.512c-.413.8-.97 1.517-1.671 2.151-.696.628-1.527 1.127-2.493 1.496-.96.363-2.047.545-3.26.545-1.686 0-3.194-.382-4.523-1.145-1.324-.764-2.37-1.869-3.14-3.315-.763-1.447-1.145-3.198-1.145-5.253 0-2.063.388-3.817 1.164-5.263.775-1.447 1.828-2.549 3.157-3.306C69.741 1.214 71.237.832 72.9.832c1.095 0 2.11.154 3.046.462a7.725 7.725 0 0 1 2.503 1.348 6.934 6.934 0 0 1 1.772 2.151c.462.85.758 1.822.887 2.918Zm6.837 12.557c-.905 0-1.712-.157-2.42-.471a3.894 3.894 0 0 1-1.68-1.413c-.406-.628-.61-1.41-.61-2.345 0-.788.146-1.45.435-1.985.29-.536.683-.966 1.182-1.293a5.73 5.73 0 0 1 1.698-.738 12.95 12.95 0 0 1 2.013-.351c.825-.086 1.49-.166 1.995-.24.504-.08.87-.197 1.098-.351.228-.154.342-.382.342-.683v-.056c0-.584-.185-1.037-.554-1.357-.363-.32-.88-.48-1.551-.48-.708 0-1.271.157-1.69.47a2.167 2.167 0 0 0-.83 1.164l-3.638-.295a4.942 4.942 0 0 1 1.089-2.235c.542-.634 1.24-1.12 2.096-1.458.862-.345 1.859-.517 2.991-.517.788 0 1.542.092 2.262.277.727.184 1.37.47 1.93.858a4.174 4.174 0 0 1 1.339 1.496c.326.603.49 1.326.49 2.17V20H92.2v-1.967h-.112a4.001 4.001 0 0 1-.914 1.173 4.23 4.23 0 0 1-1.376.785c-.535.184-1.154.277-1.855.277Zm1.126-2.715c.579 0 1.09-.114 1.533-.341a2.714 2.714 0 0 0 1.043-.942c.252-.394.379-.84.379-1.339v-1.505c-.123.08-.293.154-.508.222-.21.061-.446.12-.711.175-.265.05-.53.096-.794.139l-.72.101a4.863 4.863 0 0 0-1.21.323 1.934 1.934 0 0 0-.803.6c-.19.247-.286.554-.286.924 0 .535.194.945.581 1.228.394.277.893.415 1.496.415ZM98.982 20V5.818h3.813v2.475h.148c.258-.88.692-1.545 1.301-1.995a3.426 3.426 0 0 1 2.106-.683c.197 0 .409.012.637.037.227.025.427.058.6.102v3.49a5.14 5.14 0 0 0-.767-.148 6.87 6.87 0 0 0-.895-.065c-.579 0-1.096.126-1.551.379-.45.246-.807.59-1.071 1.034-.259.443-.388.954-.388 1.533V20h-3.933Zm15.204.23c-1.077 0-2.053-.276-2.927-.83-.868-.56-1.557-1.382-2.068-2.465-.505-1.09-.757-2.425-.757-4.007 0-1.625.262-2.977.785-4.054.523-1.083 1.219-1.892 2.086-2.428a5.349 5.349 0 0 1 2.872-.812c.794 0 1.456.135 1.985.406.535.264.966.597 1.293.997.332.394.584.782.757 1.163h.12V1.09h3.924V20h-3.878v-2.271h-.166a5.1 5.1 0 0 1-.785 1.172c-.333.382-.766.699-1.302.951-.529.253-1.176.379-1.939.379Zm1.247-3.13c.634 0 1.169-.172 1.606-.516.443-.351.782-.84 1.016-1.468.24-.628.36-1.364.36-2.207 0-.843-.117-1.576-.351-2.197-.234-.622-.573-1.102-1.016-1.44-.443-.34-.981-.509-1.615-.509-.647 0-1.192.176-1.635.527-.443.35-.778.837-1.006 1.459-.228.621-.342 1.341-.342 2.16 0 .825.114 1.554.342 2.188.234.628.569 1.12 1.006 1.478.443.35.988.526 1.635.526Zm19.151-3.138V5.818h3.933V20h-3.776v-2.576h-.148a4.186 4.186 0 0 1-1.597 2.004c-.739.504-1.64.757-2.705.757-.948 0-1.782-.216-2.502-.647-.721-.43-1.284-1.043-1.69-1.837-.4-.794-.603-1.745-.609-2.853v-9.03h3.933v8.328c.006.837.231 1.5.674 1.985.443.487 1.037.73 1.782.73.474 0 .917-.108 1.329-.323a2.53 2.53 0 0 0 .997-.98c.259-.43.385-.962.379-1.596Zm13.487 6.315c-1.453 0-2.702-.308-3.749-.923a6.24 6.24 0 0 1-2.4-2.585c-.554-1.102-.831-2.37-.831-3.804 0-1.453.28-2.727.84-3.823a6.242 6.242 0 0 1 2.41-2.576c1.04-.622 2.277-.932 3.712-.932 1.237 0 2.32.224 3.25.674.929.449 1.665 1.08 2.206 1.892.542.813.84 1.767.896 2.863h-3.712c-.104-.708-.381-1.278-.831-1.709-.443-.437-1.025-.655-1.745-.655-.609 0-1.142.166-1.597.498-.449.327-.8.804-1.053 1.432-.252.627-.378 1.388-.378 2.28 0 .905.123 1.674.369 2.308.252.634.606 1.117 1.062 1.45.455.332.988.498 1.597.498.45 0 .853-.092 1.21-.276.363-.185.661-.453.895-.804.24-.357.397-.785.471-1.283h3.712c-.062 1.083-.357 2.037-.887 2.862-.523.819-1.246 1.459-2.169 1.92-.924.462-2.016.693-3.278.693Zm15.26 0c-1.453 0-2.702-.308-3.749-.923a6.24 6.24 0 0 1-2.4-2.585c-.554-1.102-.831-2.37-.831-3.804 0-1.453.28-2.727.84-3.823a6.235 6.235 0 0 1 2.41-2.576c1.04-.622 2.277-.932 3.711-.932 1.238 0 2.321.224 3.25.674.93.449 1.665 1.08 2.207 1.892.542.813.84 1.767.896 2.863h-3.712c-.105-.708-.382-1.278-.831-1.709-.443-.437-1.025-.655-1.745-.655-.609 0-1.142.166-1.597.498-.45.327-.801.804-1.053 1.432-.252.627-.378 1.388-.378 2.28 0 .905.123 1.674.369 2.308.252.634.606 1.117 1.062 1.45.455.332.988.498 1.597.498.449 0 .852-.092 1.209-.276.364-.185.662-.453.896-.804.24-.357.397-.785.471-1.283h3.712c-.062 1.083-.357 2.037-.887 2.862-.523.819-1.246 1.459-2.17 1.92-.923.462-2.015.693-3.277.693Zm8.852-.277V5.818h3.933V20h-3.933Zm1.976-16.01a2.136 2.136 0 0 1-1.505-.582c-.413-.394-.619-.864-.619-1.412 0-.542.206-1.007.619-1.394.418-.394.92-.591 1.505-.591.584 0 1.083.197 1.495.59.419.388.628.853.628 1.395 0 .548-.209 1.018-.628 1.412a2.104 2.104 0 0 1-1.495.582Z" fill="#000"/></svg>