<svg width="212" height="22" fill="none" xmlns="http://www.w3.org/2000/svg"><path d="M.976 11.83h6.006c.103.308.403.572.902.792.499.205 1.166.367 2.002.484.85.103 1.833.154 2.948.154 1.1 0 1.965-.03 2.596-.088.645-.073 1.1-.19 1.364-.352.264-.176.396-.41.396-.704 0-.279-.213-.491-.638-.638-.425-.161-1.18-.271-2.266-.33-1.085-.059-2.61-.088-4.576-.088-1.467 0-2.735-.066-3.806-.198-1.056-.147-1.929-.367-2.618-.66-.675-.308-1.173-.69-1.496-1.144-.323-.47-.484-1.027-.484-1.672 0-1.115.374-2.031 1.122-2.75.763-.733 1.907-1.276 3.432-1.628 1.54-.367 3.461-.55 5.764-.55 3.373 0 5.947.491 7.722 1.474 1.79.968 2.684 2.369 2.684 4.202h-5.698c-.073-.484-.528-.85-1.364-1.1-.836-.264-2.024-.396-3.564-.396-1.525 0-2.662.088-3.41.264-.733.176-1.1.477-1.1.902 0 .22.103.396.308.528.205.132.557.242 1.056.33.513.073 1.232.125 2.156.154.924.03 2.097.044 3.52.044 1.57 0 2.904.08 4.004.242 1.1.147 1.987.374 2.662.682.69.308 1.188.704 1.496 1.188.308.47.462 1.027.462 1.672 0 1.115-.352 2.024-1.056 2.728-.704.704-1.819 1.225-3.344 1.562-1.525.337-3.52.506-5.984.506-1.393 0-2.677-.08-3.85-.242-1.159-.161-2.193-.396-3.102-.704-.91-.323-1.68-.711-2.31-1.166-.63-.47-1.115-.99-1.452-1.562a3.95 3.95 0 0 1-.484-1.936Zm33.675 5.5c-2.332 0-4.276-.19-5.83-.572-1.54-.381-2.699-.99-3.476-1.826-.763-.836-1.144-1.936-1.144-3.3 0-1.364.381-2.464 1.144-3.3.777-.85 1.936-1.467 3.476-1.848 1.554-.396 3.498-.594 5.83-.594 2.317 0 4.238.198 5.764.594 1.54.381 2.691.997 3.454 1.848.762.836 1.144 1.936 1.144 3.3 0 1.364-.382 2.464-1.144 3.3-.763.836-1.914 1.445-3.454 1.826-1.526.381-3.447.572-5.764.572Zm0-3.19c1.085 0 1.994-.088 2.728-.264.733-.19 1.29-.47 1.672-.836.381-.381.572-.85.572-1.408 0-.557-.191-1.027-.572-1.408-.367-.381-.917-.667-1.65-.858-.734-.19-1.65-.286-2.75-.286-1.086 0-2.01.095-2.772.286-.748.19-1.32.477-1.716.858-.382.367-.572.836-.572 1.408 0 .557.19 1.027.572 1.408.381.367.946.645 1.694.836.762.176 1.694.264 2.794.264Zm25.533 3.19c-1.32 0-2.508-.132-3.564-.396-1.056-.279-1.958-.667-2.706-1.166-.748-.513-1.32-1.122-1.716-1.826a4.674 4.674 0 0 1-.594-2.332c0-.85.198-1.62.594-2.31.396-.704.968-1.305 1.716-1.804.748-.513 1.65-.902 2.706-1.166 1.056-.279 2.244-.418 3.564-.418 1.584 0 2.992.227 4.224.682 1.247.44 2.222 1.085 2.926 1.936.704.85 1.056 1.877 1.056 3.08 0 1.261-.352 2.317-1.056 3.168-.704.85-1.679 1.489-2.926 1.914-1.232.425-2.64.638-4.224.638Zm-1.98-3.366c.998 0 1.848-.088 2.552-.264.704-.176 1.24-.433 1.606-.77.367-.352.55-.792.55-1.32 0-.777-.41-1.364-1.232-1.76-.82-.396-1.98-.594-3.476-.594-1.114 0-2.14.066-3.08.198-.924.132-1.672.374-2.244.726-.557.337-.836.814-.836 1.43s.28 1.1.836 1.452c.572.337 1.32.572 2.244.704.94.132 1.966.198 3.08.198ZM46.764 6.22h4.972l.308 4.18v11h-5.28V6.22ZM85.077 17v-4.004c0-.66-.132-1.217-.396-1.672-.264-.455-.733-.792-1.408-1.012-.66-.235-1.599-.352-2.816-.352-.69 0-1.364.066-2.024.198-.645.117-1.232.264-1.76.44-.513.176-.924.352-1.232.528l-.044-1.056c.059-.22.257-.55.594-.99.352-.455.858-.924 1.518-1.408.66-.499 1.489-.917 2.486-1.254 1.012-.352 2.207-.528 3.586-.528.865 0 1.701.08 2.508.242a6.651 6.651 0 0 1 2.156.814 4.186 4.186 0 0 1 1.54 1.496c.381.63.572 1.415.572 2.354V17h-5.28ZM70.38 17V1.82h5.28V17h-5.28ZM98.14.566v3.3h-5.588v-3.3h5.588ZM92.707 6.22h5.28V17h-5.28V6.22Zm22.511 6.908h5.192c-.132.85-.557 1.591-1.276 2.222-.704.63-1.738 1.122-3.102 1.474-1.349.337-3.072.506-5.17.506-2.214 0-4.128-.176-5.742-.528-1.598-.352-2.83-.946-3.696-1.782-.865-.836-1.298-1.965-1.298-3.388 0-1.408.418-2.53 1.254-3.366.851-.85 2.076-1.46 3.674-1.826 1.599-.367 3.535-.55 5.808-.55 2.23 0 4.056.198 5.478.594 1.423.396 2.472 1.041 3.146 1.936.675.88.998 2.075.968 3.586h-14.96c.074.381.279.733.616 1.056.352.323.888.587 1.606.792.734.19 1.709.286 2.926.286 1.262 0 2.296-.088 3.102-.264.822-.176 1.313-.425 1.474-.748Zm-4.576-4.048c-1.554 0-2.742.169-3.564.506-.806.337-1.283.675-1.43 1.012h9.68c-.102-.381-.513-.726-1.232-1.034-.718-.323-1.87-.484-3.454-.484ZM129.578 17V2.92h13.86c2.845 0 4.943.279 6.292.836 1.349.557 2.024 1.525 2.024 2.904 0 .88-.293 1.555-.88 2.024-.572.47-1.401.8-2.486.99-1.071.176-2.361.286-3.872.33l.176-.176c1.1 0 2.119.03 3.058.088.939.059 1.76.19 2.464.396.704.205 1.254.52 1.65.946.396.425.594 1.012.594 1.76 0 .91-.323 1.657-.968 2.244-.645.587-1.562 1.027-2.75 1.32-1.188.279-2.589.418-4.202.418h-14.96Zm5.5-4.136h9.46c.777 0 1.335-.073 1.672-.22.352-.147.528-.381.528-.704a.649.649 0 0 0-.242-.528c-.147-.132-.381-.227-.704-.286-.323-.073-.741-.11-1.254-.11h-9.46v1.848Zm0-3.96h8.536c.777 0 1.335-.073 1.672-.22.352-.147.528-.381.528-.704 0-.337-.176-.572-.528-.704-.337-.147-.895-.22-1.672-.22h-8.536v1.848ZM154.43 1.82h5.28V17h-5.28V1.82ZM182.004 17h-5.28V6.22h5.28V17Zm-5.06-5.566.044 1.056c-.044.308-.191.667-.44 1.078-.235.41-.565.836-.99 1.276-.425.44-.946.85-1.562 1.232a9.252 9.252 0 0 1-2.112.902c-.792.235-1.672.352-2.64.352a11.88 11.88 0 0 1-2.75-.308 6.654 6.654 0 0 1-2.31-.968 4.674 4.674 0 0 1-1.584-1.826c-.381-.777-.572-1.745-.572-2.904V6.22h5.28v4.554c0 .807.132 1.43.396 1.87.279.44.711.748 1.298.924.587.161 1.342.242 2.266.242.865 0 1.665-.125 2.398-.374a8.994 8.994 0 0 0 1.958-.946c.572-.367 1.012-.719 1.32-1.056Zm21.913 1.694h5.192c-.132.85-.557 1.591-1.276 2.222-.704.63-1.738 1.122-3.102 1.474-1.349.337-3.073.506-5.17.506-2.215 0-4.129-.176-5.742-.528-1.599-.352-2.831-.946-3.696-1.782-.865-.836-1.298-1.965-1.298-3.388 0-1.408.418-2.53 1.254-3.366.851-.85 2.075-1.46 3.674-1.826 1.599-.367 3.535-.55 5.808-.55 2.229 0 4.055.198 5.478.594 1.423.396 2.471 1.041 3.146 1.936.675.88.997 2.075.968 3.586h-14.96c.073.381.279.733.616 1.056.352.323.887.587 1.606.792.733.19 1.709.286 2.926.286 1.261 0 2.295-.088 3.102-.264.821-.176 1.313-.425 1.474-.748Zm-4.576-4.048c-1.555 0-2.743.169-3.564.506-.807.337-1.283.675-1.43 1.012h9.68c-.103-.381-.513-.726-1.232-1.034-.719-.323-1.87-.484-3.454-.484Zm11.905-7.26h5.28V17h-5.28V1.82Z" fill="#B1663C"/></svg>